<svg xmlns="http://www.w3.org/2000/svg" viewBox="0 0 720 520" role="img" aria-labelledby="title desc">
  <title id="title">Fully connected neural network</title>
  <desc id="desc">Four input nodes connect through two hidden layers of five nodes to three output nodes.</desc>
  <rect width="720" height="520" fill="#fff"/>
  <g stroke="#8193a8" stroke-width="1" opacity=".62">
    <path d="M70 170 260 130M70 170 260 195M70 170 260 260M70 170 260 325M70 170 260 390M70 235 260 130M70 235 260 195M70 235 260 260M70 235 260 325M70 235 260 390M70 300 260 130M70 300 260 195M70 300 260 260M70 300 260 325M70 300 260 390M70 365 260 130M70 365 260 195M70 365 260 260M70 365 260 325M70 365 260 390"/>
    <path d="M260 130 460 130M260 130 460 195M260 130 460 260M260 130 460 325M260 130 460 390M260 195 460 130M260 195 460 195M260 195 460 260M260 195 460 325M260 195 460 390M260 260 460 130M260 260 460 195M260 260 460 260M260 260 460 325M260 260 460 390M260 325 460 130M260 325 460 195M260 325 460 260M260 325 460 325M260 325 460 390M260 390 460 130M260 390 460 195M260 390 460 260M260 390 460 325M260 390 460 390"/>
    <path d="M460 130 650 195M460 130 650 260M460 130 650 325M460 195 650 195M460 195 650 260M460 195 650 325M460 260 650 195M460 260 650 260M460 260 650 325M460 325 650 195M460 325 650 260M460 325 650 325M460 390 650 195M460 390 650 260M460 390 650 325"/>
  </g>
  <g stroke="#263f5b" stroke-width="2">
    <g fill="#d8efdf"><circle cx="70" cy="170" r="25"/><circle cx="70" cy="235" r="25"/><circle cx="70" cy="300" r="25"/><circle cx="70" cy="365" r="25"/></g>
    <g fill="#dce8f7"><circle cx="260" cy="130" r="25"/><circle cx="260" cy="195" r="25"/><circle cx="260" cy="260" r="25"/><circle cx="260" cy="325" r="25"/><circle cx="260" cy="390" r="25"/><circle cx="460" cy="130" r="25"/><circle cx="460" cy="195" r="25"/><circle cx="460" cy="260" r="25"/><circle cx="460" cy="325" r="25"/><circle cx="460" cy="390" r="25"/></g>
    <g fill="#f8ded8"><circle cx="650" cy="195" r="25"/><circle cx="650" cy="260" r="25"/><circle cx="650" cy="325" r="25"/></g>
  </g>
  <g fill="#263f5b" font-family="Georgia,serif" font-size="15" text-anchor="middle">
    <text x="70" y="174">x₁</text><text x="70" y="239">x₂</text><text x="70" y="304">x₃</text><text x="70" y="369">x₄</text>
    <text x="260" y="134">h₁</text><text x="260" y="199">h₂</text><text x="260" y="264">h₃</text><text x="260" y="329">h₄</text><text x="260" y="394">h₅</text>
    <text x="460" y="134">h₁</text><text x="460" y="199">h₂</text><text x="460" y="264">h₃</text><text x="460" y="329">h₄</text><text x="460" y="394">h₅</text>
    <text x="650" y="199">y₁</text><text x="650" y="264">y₂</text><text x="650" y="329">y₃</text>
  </g>
  <g fill="#263f5b" font-family="system-ui,sans-serif" font-size="17" font-weight="700" text-anchor="middle">
    <text x="70" y="85">Input</text><text x="360" y="70">Hidden layers</text><text x="650" y="110">Output</text>
  </g>
</svg>
